<svg width="85" height="85" viewBox="0 0 85 85" fill="none" xmlns="http://www.w3.org/2000/svg">
<g id="lucide:fish">
<g id="Group">
<path id="Vector" d="M63.7507 42.5V44.2708M23.0215 42.5C26.3507 30.2458 40.5173 21.25 53.1257 21.25C65.734 21.25 74.5882 30.2458 77.9173 42.5C74.5882 54.7896 65.734 63.75 53.1257 63.75C40.5173 63.75 26.3507 54.7896 23.0215 42.5Z" stroke="black" stroke-width="5" stroke-linecap="round" stroke-linejoin="round"/>
<path id="Vector_2" d="M56.6668 63.5019C52.0598 57.4697 49.5641 50.0901 49.5641 42.4998C49.5641 34.9096 52.0598 27.53 56.6668 21.4978M24.7918 37.7894C24.7918 28.3332 19.7626 21.1436 9.66889 19.479C6.12722 24.7915 6.12722 37.1873 10.4835 42.4998C6.0918 47.8123 6.0918 60.2082 9.66889 65.5207C19.7626 63.8561 24.7918 56.6665 24.7918 47.2103" stroke="black" stroke-width="5" stroke-linecap="round" stroke-linejoin="round"/>
<path id="Vector_3" d="M37.0465 25.7126C36.1257 20.8251 32.4777 15.0167 28.334 10.625H48.8757C50.5562 10.6188 52.1841 11.2103 53.4687 12.2938C54.7533 13.3772 55.6109 14.8821 55.8881 16.5396L56.7027 21.498M56.7027 63.5021L55.8881 68.4605C55.6109 70.118 54.7533 71.6229 53.4687 72.7063C52.1841 73.7898 50.5562 74.3813 48.8757 74.3751H33.6465C37.0778 70.4845 38.9564 65.4666 38.9236 60.2792" stroke="black" stroke-width="5" stroke-linecap="round" stroke-linejoin="round"/>
</g>
</g>
</svg>
